<svg width="207" height="193" viewBox="0 0 207 193" fill="none" xmlns="http://www.w3.org/2000/svg">
<ellipse cx="85.8833" cy="58.5698" rx="57.8833" ry="58.5698" fill="#07346B"/>
<ellipse cx="126.15" cy="92.5233" rx="52.85" ry="53.4767" fill="#80A2CC"/>
<path d="M61.9764 162.117C61.8906 161.853 61.7774 161.617 61.6369 161.408C61.499 161.196 61.3338 161.016 61.1413 160.867C60.9514 160.718 60.7354 160.605 60.4935 160.526C60.2515 160.448 59.9861 160.409 59.6974 160.409C59.2238 160.409 58.7933 160.532 58.4056 160.777C58.018 161.023 57.7097 161.384 57.4807 161.862C57.2518 162.34 57.1373 162.926 57.1373 163.621C57.1373 164.316 57.2531 164.902 57.4846 165.38C57.7162 165.858 58.0297 166.22 58.4251 166.465C58.8206 166.711 59.2655 166.833 59.7598 166.833C60.2177 166.833 60.6209 166.735 60.9696 166.539C61.3208 166.341 61.594 166.062 61.7891 165.701C61.9868 165.338 62.0857 164.911 62.0857 164.42L62.3823 164.483H59.9783V163.621H63.0223V164.483C63.0223 165.144 62.8818 165.718 62.6008 166.206C62.3224 166.695 61.9374 167.074 61.4457 167.342C60.9566 167.609 60.3946 167.742 59.7598 167.742C59.0521 167.742 58.4303 167.575 57.8944 167.241C57.3611 166.906 56.9448 166.431 56.6456 165.815C56.349 165.198 56.2007 164.467 56.2007 163.621C56.2007 162.986 56.2853 162.416 56.4544 161.909C56.6261 161.4 56.868 160.966 57.1802 160.609C57.4924 160.251 57.8619 159.977 58.2885 159.786C58.7152 159.595 59.1848 159.5 59.6974 159.5C60.1188 159.5 60.5117 159.564 60.8759 159.692C61.2427 159.817 61.5693 159.996 61.8554 160.229C62.1442 160.458 62.3849 160.734 62.5774 161.055C62.7699 161.374 62.9026 161.728 62.9755 162.117H61.9764Z" fill="white"/>
<path d="M71.1637 167.632V159.61H75.9872V160.471H72.1315V163.182H75.7374V164.044H72.1315V166.771H76.0496V167.632H71.1637Z" fill="white"/>
<path d="M90.5531 159.61V167.632H89.6164L85.2612 161.333H85.1832V167.632H84.2154V159.61H85.152L89.5228 165.924H89.6008V159.61H90.5531Z" fill="white"/>
<path d="M98.9735 167.632V159.61H103.797V160.471H99.9413V163.182H103.547V164.044H99.9413V166.771H103.859V167.632H98.9735Z" fill="white"/>
<path d="M112.025 167.632V159.61H114.726C115.35 159.61 115.863 159.717 116.263 159.931C116.664 160.142 116.961 160.434 117.153 160.804C117.346 161.175 117.442 161.597 117.442 162.07C117.442 162.542 117.346 162.962 117.153 163.327C116.961 163.693 116.665 163.98 116.267 164.189C115.869 164.395 115.361 164.499 114.741 164.499H112.556V163.621H114.71C115.137 163.621 115.48 163.558 115.74 163.433C116.003 163.308 116.193 163.13 116.31 162.9C116.43 162.668 116.49 162.391 116.49 162.07C116.49 161.749 116.43 161.468 116.31 161.228C116.19 160.987 115.999 160.802 115.736 160.671C115.474 160.538 115.126 160.471 114.694 160.471H112.993V167.632H112.025ZM115.787 164.028L117.754 167.632H116.63L114.694 164.028H115.787Z" fill="white"/>
<path d="M125.866 167.632H124.852L127.786 159.61H128.785L131.72 167.632H130.705L128.317 160.879H128.255L125.866 167.632ZM126.241 164.499H130.331V165.36H126.241V164.499Z" fill="white"/>
<path d="M139.449 167.632V159.61H140.416V166.771H144.132V167.632H139.449Z" fill="white"/>
<path d="M0.733643 192.401V176.356H7.0401C8.25248 176.356 9.28534 176.588 10.1387 177.053C10.992 177.513 11.6425 178.152 12.0899 178.972C12.5426 179.787 12.769 180.727 12.769 181.793C12.769 182.858 12.54 183.799 12.0821 184.613C11.6242 185.428 10.9608 186.063 10.0919 186.517C9.22811 186.972 8.18223 187.199 6.95424 187.199H2.93466V184.48H6.40789C7.05831 184.48 7.59425 184.368 8.01573 184.143C8.4424 183.913 8.7598 183.597 8.96794 183.195C9.18128 182.788 9.28794 182.32 9.28794 181.793C9.28794 181.26 9.18128 180.795 8.96794 180.398C8.7598 179.996 8.4424 179.685 8.01573 179.466C7.58905 179.241 7.0479 179.129 6.39228 179.129H4.11322V192.401H0.733643Z" fill="white"/>
<path d="M17.162 192.401V176.356H20.5416V189.604H27.3944V192.401H17.162Z" fill="white"/>
<path d="M41.7037 176.356H45.0833V186.776C45.0833 187.946 44.8049 188.969 44.2482 189.847C43.6966 190.724 42.9239 191.409 41.9301 191.9C40.9363 192.385 39.7785 192.628 38.4569 192.628C37.13 192.628 35.9697 192.385 34.9758 191.9C33.982 191.409 33.2093 190.724 32.6577 189.847C32.1062 188.969 31.8304 187.946 31.8304 186.776V176.356H35.21V186.486C35.21 187.097 35.3427 187.64 35.608 188.115C35.8786 188.591 36.2584 188.964 36.7476 189.236C37.2367 189.507 37.8064 189.643 38.4569 189.643C39.1125 189.643 39.6822 189.507 40.1662 189.236C40.6553 188.964 41.0325 188.591 41.2979 188.115C41.5685 187.64 41.7037 187.097 41.7037 186.486V176.356Z" fill="white"/>
<path d="M50.0618 176.356H54.2296L58.6317 187.136H58.819L63.221 176.356H67.3889V192.401H64.1108V181.957H63.9781L59.8414 192.323H57.6092L53.4725 181.918H53.3399V192.401H50.0618V176.356Z" fill="white"/>
<path d="M72.3712 192.401V176.356H78.7713C79.9473 176.356 80.9281 176.531 81.7138 176.881C82.4995 177.23 83.0901 177.716 83.4856 178.338C83.881 178.954 84.0788 179.664 84.0788 180.469C84.0788 181.096 83.9539 181.647 83.7041 182.122C83.4544 182.592 83.1109 182.979 82.6739 183.281C82.242 183.579 81.7477 183.791 81.1909 183.916V184.073C81.7997 184.099 82.3695 184.271 82.9002 184.59C83.4361 184.908 83.8706 185.355 84.2036 185.93C84.5367 186.499 84.7032 187.178 84.7032 187.967C84.7032 188.818 84.4924 189.578 84.071 190.246C83.6547 190.91 83.0381 191.435 82.2212 191.821C81.4042 192.208 80.3974 192.401 79.2006 192.401H72.3712ZM75.7508 189.628H78.506C79.4478 189.628 80.1346 189.447 80.5665 189.087C80.9984 188.721 81.2143 188.236 81.2143 187.63C81.2143 187.186 81.1076 186.794 80.8943 186.455C80.681 186.115 80.3766 185.849 79.9811 185.655C79.5909 185.462 79.1252 185.365 78.584 185.365H75.7508V189.628ZM75.7508 183.07H78.2562C78.7193 183.07 79.1304 182.989 79.4894 182.827C79.8536 182.66 80.1398 182.425 80.348 182.122C80.5613 181.819 80.668 181.456 80.668 181.033C80.668 180.453 80.4624 179.986 80.0514 179.631C79.6455 179.275 79.0679 179.098 78.3186 179.098H75.7508V183.07Z" fill="white"/>
<path d="M92.4797 176.356V192.401H89.1001V176.356H92.4797Z" fill="white"/>
<path d="M110.828 176.356V192.401H107.909L100.955 182.302H100.838V192.401H97.4581V176.356H100.424L107.324 186.447H107.464V176.356H110.828Z" fill="white"/>
<path d="M126.417 181.542C126.308 181.161 126.155 180.824 125.957 180.531C125.759 180.234 125.517 179.983 125.231 179.779C124.95 179.57 124.628 179.411 124.263 179.301C123.904 179.192 123.506 179.137 123.069 179.137C122.252 179.137 121.534 179.341 120.915 179.748C120.301 180.155 119.822 180.748 119.479 181.526C119.135 182.3 118.964 183.245 118.964 184.363C118.964 185.48 119.133 186.431 119.471 187.214C119.809 187.998 120.288 188.596 120.907 189.009C121.526 189.416 122.257 189.62 123.1 189.62C123.865 189.62 124.518 189.484 125.059 189.212C125.606 188.935 126.022 188.546 126.308 188.045C126.6 187.544 126.745 186.951 126.745 186.266L127.432 186.368H123.311V183.814H130V185.836C130 187.246 129.703 188.458 129.11 189.471C128.517 190.479 127.7 191.257 126.659 191.806C125.619 192.349 124.427 192.62 123.085 192.62C121.586 192.62 120.27 192.289 119.135 191.625C118.001 190.957 117.116 190.009 116.482 188.781C115.852 187.549 115.537 186.086 115.537 184.394C115.537 183.093 115.725 181.934 116.099 180.915C116.479 179.892 117.01 179.025 117.691 178.314C118.373 177.604 119.167 177.063 120.072 176.693C120.977 176.322 121.958 176.136 123.014 176.136C123.92 176.136 124.763 176.269 125.543 176.536C126.324 176.797 127.016 177.168 127.619 177.648C128.228 178.129 128.725 178.701 129.11 179.364C129.495 180.022 129.742 180.748 129.852 181.542H126.417Z" fill="white"/>
<path d="M141.931 192.318V176.272H148.237C149.449 176.272 150.482 176.505 151.336 176.97C152.189 177.429 152.839 178.069 153.287 178.889C153.74 179.704 153.966 180.644 153.966 181.71C153.966 182.775 153.737 183.715 153.279 184.53C152.821 185.345 152.158 185.979 151.289 186.434C150.425 186.888 149.379 187.115 148.151 187.115H144.132V184.397H147.605C148.255 184.397 148.791 184.285 149.213 184.06C149.639 183.83 149.957 183.514 150.165 183.112C150.378 182.705 150.485 182.237 150.485 181.71C150.485 181.177 150.378 180.712 150.165 180.315C149.957 179.913 149.639 179.602 149.213 179.383C148.786 179.158 148.245 179.046 147.589 179.046H145.31V192.318H141.931Z" fill="white"/>
<path d="M158.359 192.318V176.272H164.665C165.873 176.272 166.903 176.489 167.756 176.923C168.615 177.351 169.268 177.959 169.715 178.748C170.168 179.531 170.394 180.453 170.394 181.514C170.394 182.579 170.165 183.496 169.708 184.264C169.25 185.026 168.586 185.611 167.717 186.019C166.853 186.426 165.808 186.63 164.58 186.63H160.357V183.903H164.033C164.678 183.903 165.214 183.814 165.641 183.637C166.068 183.459 166.385 183.193 166.593 182.838C166.807 182.483 166.913 182.041 166.913 181.514C166.913 180.981 166.807 180.532 166.593 180.166C166.385 179.8 166.065 179.524 165.633 179.336C165.207 179.142 164.668 179.046 164.018 179.046H161.739V192.318H158.359ZM166.991 185.016L170.964 192.318H167.233L163.346 185.016H166.991Z" fill="white"/>
<path d="M189.67 184.295C189.67 186.045 189.339 187.533 188.678 188.761C188.023 189.988 187.128 190.926 185.993 191.573C184.864 192.216 183.595 192.537 182.185 192.537C180.764 192.537 179.489 192.213 178.36 191.566C177.231 190.918 176.339 189.98 175.683 188.753C175.027 187.525 174.7 186.039 174.7 184.295C174.7 182.545 175.027 181.057 175.683 179.829C176.339 178.602 177.231 177.667 178.36 177.024C179.489 176.377 180.764 176.053 182.185 176.053C183.595 176.053 184.864 176.377 185.993 177.024C187.128 177.667 188.023 178.602 188.678 179.829C189.339 181.057 189.67 182.545 189.67 184.295ZM186.243 184.295C186.243 183.162 186.074 182.206 185.736 181.427C185.403 180.649 184.932 180.059 184.323 179.657C183.714 179.255 183.002 179.054 182.185 179.054C181.368 179.054 180.655 179.255 180.046 179.657C179.437 180.059 178.964 180.649 178.626 181.427C178.293 182.206 178.126 183.162 178.126 184.295C178.126 185.428 178.293 186.384 178.626 187.162C178.964 187.941 179.437 188.531 180.046 188.933C180.655 189.335 181.368 189.536 182.185 189.536C183.002 189.536 183.714 189.335 184.323 188.933C184.932 188.531 185.403 187.941 185.736 187.162C186.074 186.384 186.243 185.428 186.243 184.295Z" fill="white"/>
<path d="M203.042 180.887C202.98 180.255 202.712 179.764 202.238 179.414C201.765 179.064 201.122 178.889 200.311 178.889C199.759 178.889 199.293 178.967 198.913 179.124C198.534 179.276 198.242 179.487 198.039 179.759C197.842 180.03 197.743 180.338 197.743 180.683C197.732 180.97 197.792 181.221 197.922 181.435C198.058 181.649 198.242 181.835 198.476 181.992C198.711 182.143 198.981 182.276 199.288 182.391C199.595 182.501 199.923 182.595 200.272 182.673L201.708 183.018C202.405 183.175 203.045 183.384 203.628 183.645C204.21 183.906 204.715 184.227 205.142 184.608C205.569 184.99 205.899 185.439 206.133 185.956C206.372 186.473 206.495 187.066 206.5 187.734C206.495 188.716 206.245 189.568 205.751 190.288C205.262 191.004 204.554 191.56 203.628 191.957C202.707 192.349 201.596 192.545 200.295 192.545C199.005 192.545 197.881 192.346 196.923 191.949C195.971 191.552 195.227 190.965 194.691 190.187C194.16 189.403 193.882 188.434 193.856 187.28H197.126C197.163 187.818 197.316 188.267 197.587 188.628C197.862 188.983 198.229 189.252 198.687 189.435C199.15 189.612 199.673 189.701 200.256 189.701C200.828 189.701 201.325 189.617 201.747 189.45C202.173 189.283 202.504 189.051 202.738 188.753C202.972 188.455 203.089 188.113 203.089 187.727C203.089 187.366 202.983 187.063 202.769 186.818C202.561 186.572 202.254 186.363 201.848 186.191C201.448 186.019 200.956 185.862 200.373 185.721L198.633 185.282C197.285 184.953 196.221 184.439 195.44 183.739C194.66 183.039 194.272 182.096 194.277 180.91C194.272 179.939 194.53 179.09 195.05 178.364C195.576 177.638 196.296 177.071 197.212 176.664C198.128 176.257 199.168 176.053 200.334 176.053C201.52 176.053 202.556 176.257 203.44 176.664C204.33 177.071 205.022 177.638 205.517 178.364C206.011 179.09 206.266 179.931 206.281 180.887H203.042Z" fill="white"/>
</svg>
